<?xml version="1.0" encoding="UTF-8" standalone="no"?>
<svg
   xmlns:dc="http://purl.org/dc/elements/1.1/"
   xmlns:cc="http://creativecommons.org/ns#"
   xmlns:rdf="http://www.w3.org/1999/02/22-rdf-syntax-ns#"
   xmlns:svg="http://www.w3.org/2000/svg"
   xmlns="http://www.w3.org/2000/svg"
   xmlns:sodipodi="http://sodipodi.sourceforge.net/DTD/sodipodi-0.dtd"
   xmlns:inkscape="http://www.inkscape.org/namespaces/inkscape"
   viewBox="0 0 165.92126 191.99999"
   height="5.0799999cm"
   width="4.3899999cm"
   xml:space="preserve"
   id="svg2"
   version="1.1"
   sodipodi:docname="logo.svg"
   inkscape:version="0.92.4 (unknown)"
   inkscape:export-filename="/home/nicolas/R/Packages/khroma/man/figures/logo.png"
   inkscape:export-xdpi="200"
   inkscape:export-ydpi="200"><sodipodi:namedview
     pagecolor="#ffffff"
     bordercolor="#666666"
     borderopacity="1"
     objecttolerance="10"
     gridtolerance="10"
     guidetolerance="10"
     inkscape:pageopacity="0"
     inkscape:pageshadow="2"
     inkscape:window-width="1920"
     inkscape:window-height="1172"
     id="namedview63"
     showgrid="false"
     units="cm"
     inkscape:zoom="2.2405063"
     inkscape:cx="-106.33589"
     inkscape:cy="72.332345"
     inkscape:window-x="1366"
     inkscape:window-y="0"
     inkscape:window-maximized="1"
     inkscape:current-layer="svg2"
     showguides="true"
     inkscape:guide-bbox="true" /><metadata
     id="metadata8"><rdf:RDF><cc:Work
         rdf:about=""><dc:format>image/svg+xml</dc:format><dc:type
           rdf:resource="http://purl.org/dc/dcmitype/StillImage" /><dc:title /></cc:Work></rdf:RDF></metadata><defs
     id="defs6"><clipPath
   id="clipPath26"
   clipPathUnits="userSpaceOnUse"><path
     id="path24"
     d="M 0,158 H 144 V 0 H 0 Z"
     inkscape:connector-curvature="0" /></clipPath><clipPath
   id="clipPath34"
   clipPathUnits="userSpaceOnUse"><path
     id="path32"
     d="M 7.05334,126.471 H 108.757 V 20.754 H 7.05334 Z"
     inkscape:connector-curvature="0" /></clipPath><clipPath
   id="clipPath66"
   clipPathUnits="userSpaceOnUse"><path
     id="path64"
     d="M 0,158 H 144 V 0 H 0 Z"
     inkscape:connector-curvature="0" /></clipPath>

</defs><path
     id="path14"
     style="fill:#cccccc;fill-opacity:1;fill-rule:nonzero;stroke:none;stroke-width:1.22071838"
     d="M 0,52.381311 V 145.46248 L 80.436604,192 160.872,145.46248 V 52.381311 L 80.436604,5.8425669 Z"
     inkscape:connector-curvature="0" /><g
     id="g30"
     transform="matrix(1.3333333,0,0,-1.3333333,0,191.99997)" /><g
     id="g1424"
     transform="matrix(0.97461927,0,0,0.97461927,4.1389392,4.6715604e-7)"><path
   inkscape:connector-curvature="0"
   d="M 83.465204,-4.7932157e-7 0.9337541,47.750692 V 143.25584 L 83.465204,191.00528 165.9954,143.25584 V 47.750692 Z"
   style="fill:#1b496a;fill-opacity:1;fill-rule:nonzero;stroke:none;stroke-width:1.25250793"
   id="path18" /><g
   transform="matrix(1.251159,0,0,-1.2538585,-7.8906693,198.11014)"
   id="g42"><g
     clip-path="url(#clipPath34)"
     id="g40"
     style="opacity:0.39999402"><g
       transform="translate(7.053,85.2446)"
       id="g38"><path
         inkscape:connector-curvature="0"
         d="m 0,0 0.001,-41.776 39.827,-22.715 34.517,20.039 0.312,5.23 27.047,15.907 -6.148,3.139 -10.809,6.361 12.259,7.373 L 92.438,3.919 85.615,-0.042 82.849,13.338 75.876,9.064 75.011,30.692 72.883,41.226 55.17,30.59 54.228,31.366 Z"
         style="fill:#0d1f2e;fill-opacity:1;fill-rule:evenodd;stroke:none"
         id="path36" /></g></g></g><path
   inkscape:connector-curvature="0"
   d="m 89.205267,127.27693 c -1.870478,3.23996 -5.442541,8.64661 -11.438095,13.5028 -20.644122,16.71644 -54.563042,14.36545 -58.614295,4.58033 -1.121038,-2.70456 -0.539249,-7.38396 1.905515,-8.91994 1.736609,-1.09211 5.042171,-0.99557 6.393422,1.24633 0.99342,1.65008 0.673124,4.03868 -0.913346,5.74518"
   style="fill:none;stroke:#7ba9ba;stroke-width:5.0100317;stroke-linecap:round;stroke-linejoin:round;stroke-miterlimit:10;stroke-dasharray:none;stroke-opacity:1"
   id="path46" /><path
   inkscape:connector-curvature="0"
   d="m 93.046706,131.45967 v 13.0627"
   style="fill:none;stroke:#7ba9ba;stroke-width:5.0100317;stroke-linecap:round;stroke-linejoin:round;stroke-miterlimit:10;stroke-dasharray:none;stroke-opacity:1"
   id="path50" /><path
   inkscape:connector-curvature="0"
   d="m 125.58784,110.46857 -10.6924,12.59125 c 0,0 6.94519,-4.17033 9.84037,-3.09578 1.32998,0.49402 3.27304,1.55854 5.20356,-0.85889 1.93055,-2.41869 -4.35153,-8.63658 -4.35153,-8.63658"
   style="fill:#7ba9ba;fill-opacity:1;fill-rule:evenodd;stroke:none;stroke-width:1.25250793"
   id="path54" /><path
   inkscape:connector-curvature="0"
   d="m 46.910218,85.888551 c 1.87799,0 3.40065,1.524692 3.40065,3.407988 v 9.20959 c 0,1.882051 -1.52266,3.407991 -3.40065,3.407991 h -1.700325 c -1.879241,0 -3.401901,-1.52594 -3.401901,-3.407991 v -9.20959 c 0,-1.883296 1.52266,-3.407988 3.401901,-3.407988 z"
   style="fill:#7ba9ba;fill-opacity:1;fill-rule:evenodd;stroke:none;stroke-width:1.25250793"
   id="path70" /><path
   inkscape:connector-curvature="0"
   d="m 59.090626,65.474232 c 1.879242,0 3.401901,1.525945 3.401901,3.40924 v 21.998947 c 0,1.882042 -1.522659,3.407988 -3.401901,3.407988 h -1.700325 c -1.877989,0 -3.40065,-1.525946 -3.40065,-3.407988 V 68.883472 c 0,-1.883295 1.522661,-3.40924 3.40065,-3.40924 z"
   style="fill:#7ba9ba;fill-opacity:1;fill-rule:evenodd;stroke:none;stroke-width:1.25250793"
   id="path74" /><path
   inkscape:connector-curvature="0"
   d="m 71.27241,51.865478 c 1.877989,0 3.401901,1.525946 3.401901,3.409241 v 30.525185 c 0,1.882042 -1.523912,3.409241 -3.401901,3.409241 h -1.700325 c -1.879241,0 -3.401901,-1.527199 -3.401901,-3.409241 V 55.274719 c 0,-1.883295 1.52266,-3.409241 3.401901,-3.409241 z"
   style="fill:#7ba9ba;fill-opacity:1;fill-rule:evenodd;stroke:none;stroke-width:1.25250793"
   id="path78" /><path
   inkscape:connector-curvature="0"
   d="m 83.452818,58.698004 c 1.879241,0 3.401901,1.525946 3.401901,3.407988 v 22.000201 c 0,1.88204 -1.52266,3.407986 -3.401901,3.407986 h -1.700325 c -1.877989,0 -3.40065,-1.525946 -3.40065,-3.407986 V 62.105992 c 0,-1.882042 1.522661,-3.407988 3.40065,-3.407988 z"
   style="fill:#7ba9ba;fill-opacity:1;fill-rule:evenodd;stroke:none;stroke-width:1.25250793"
   id="path82" /><path
   inkscape:connector-curvature="0"
   d="m 95.634599,39.075244 c 1.879243,0 3.401893,1.525946 3.401893,3.409241 V 85.80028 c 0,1.882042 -1.52265,3.407987 -3.401893,3.407987 h -1.700325 c -1.87799,0 -3.401899,-1.525945 -3.401899,-3.407987 V 42.484485 c 0,-1.883295 1.523909,-3.409241 3.401899,-3.409241 z"
   style="fill:#7ba9ba;fill-opacity:1;fill-rule:evenodd;stroke:none;stroke-width:1.25250793"
   id="path86" /><path
   inkscape:connector-curvature="0"
   d="m 107.815,74.501637 c 1.87925,0 3.40191,1.525946 3.40191,3.409241 v 12.124811 c 0,1.882042 -1.52266,3.407988 -3.40191,3.407988 h -1.69907 c -1.87924,0 -3.4019,-1.525946 -3.4019,-3.407988 V 77.910878 c 0,-1.883295 1.52266,-3.409241 3.4019,-3.409241 z"
   style="fill:#7ba9ba;fill-opacity:1;fill-rule:evenodd;stroke:none;stroke-width:1.25250793"
   id="path90" /><path
   inkscape:connector-curvature="0"
   d="m 119.99667,85.862848 c 1.87925,0 3.4019,1.5272 3.4019,3.407987 v 7.540704 c 0,1.882043 -1.52265,3.409241 -3.4019,3.409241 h -1.69908 c -1.87923,0 -3.40189,-1.527198 -3.40189,-3.409241 v -7.540704 c 0,-1.880787 1.52266,-3.407987 3.40189,-3.407987 z"
   style="fill:#7ba9ba;fill-opacity:1;fill-rule:evenodd;stroke:none;stroke-width:1.25250793"
   id="path94" /><path
   inkscape:connector-curvature="0"
   d="m 64.20774,124.66275 c 13.128412,6.40721 26.162982,6.27305 39.29639,-0.405 9.73278,-4.95023 9.73278,-19.05489 0,-24.00386 -13.133408,-6.67806 -26.167978,-6.813476 -39.29639,-0.406259 -10.333322,5.043019 -10.333322,19.773359 0,24.815119 m 19.240323,9.67854 c -14.079291,0 -28.158584,-6.76708 -42.140285,-20.29872 -1.008434,-0.97676 -1.008434,-2.59675 0,-3.5735 27.962152,-27.064538 56.318419,-27.064538 84.280562,0 1.00844,0.97675 1.00844,2.59674 0,3.5735 -13.98045,13.53164 -28.059735,20.29872 -42.140277,20.29872"
   style="fill:#7ba9ba;fill-opacity:1;fill-rule:nonzero;stroke:none;stroke-width:1.25250793"
   id="path98" /><path
   inkscape:connector-curvature="0"
   d="m 118.16034,113.61425 c -23.141435,21.50994 -46.282872,21.50994 -69.423058,0 -0.784477,-0.72975 -0.784477,-1.98736 0,-2.71711 23.140186,-21.509949 46.281623,-21.509949 69.423058,0 0.78447,0.72975 0.78447,1.98736 0,2.71711"
   style="fill:#f9f8f7;fill-opacity:1;fill-rule:nonzero;stroke:none;stroke-width:1.25250793"
   id="path102" /><path
   inkscape:connector-curvature="0"
   d="m 97.518597,112.25507 c 0,7.78897 -6.299583,14.10089 -14.070531,14.10089 -7.770948,0 -14.070534,-6.31192 -14.070534,-14.10089 0,-7.78772 6.299586,-14.100897 14.070534,-14.100897 7.770948,0 14.070531,6.313177 14.070531,14.100897"
   style="fill:#7ba9ba;fill-opacity:1;fill-rule:nonzero;stroke:none;stroke-width:1.25250793"
   id="path106" /><path
   inkscape:connector-curvature="0"
   d="m 86.909397,105.49966 c 0,4.5841 -3.533272,8.30179 -7.893562,8.30179 -4.359038,0 -7.893562,-3.71769 -7.893562,-8.30179 0,-4.58537 3.534524,-8.30306 7.893562,-8.30306 4.36029,0 7.893562,3.71769 7.893562,8.30306"
   style="fill:#f9f8f7;fill-opacity:1;fill-rule:nonzero;stroke:none;stroke-width:1.25250793"
   id="path110" /><path
   inkscape:connector-curvature="0"
   d="m 86.897255,112.25507 c 0,2.00367 -1.54393,3.62867 -3.449446,3.62867 -1.904264,0 -3.448193,-1.625 -3.448193,-3.62867 0,-2.00367 1.543929,-3.62741 3.448193,-3.62741 1.905516,0 3.449446,1.62374 3.449446,3.62741"
   style="fill:#f9f8f7;fill-opacity:1;fill-rule:nonzero;stroke:none;stroke-width:1.25250793"
   id="path114" /><text
   transform="rotate(-30.1)"
   id="text1400"
   y="202.74037"
   x="-19.507858"
   style="font-style:normal;font-weight:normal;font-size:26.52850914px;line-height:1.25;font-family:sans-serif;letter-spacing:0px;word-spacing:0px;fill:#7ba9ba;fill-opacity:1;stroke:none;stroke-width:0.99481916"
   xml:space="preserve"><tspan
     style="font-style:normal;font-variant:normal;font-weight:normal;font-stretch:normal;font-family:Roboto;-inkscape-font-specification:Roboto;fill:#7ba9ba;fill-opacity:1;stroke-width:0.99481916"
     y="202.74037"
     x="-19.507858"
     id="tspan1398"
     sodipodi:role="line">khroma</tspan></text>



</g></svg>