<?xml version="1.0" encoding="UTF-8" standalone="no"?>
<!-- Created with Inkscape (http://www.inkscape.org/) -->

<svg
   xmlns:dc="http://purl.org/dc/elements/1.1/"
   xmlns:cc="http://creativecommons.org/ns#"
   xmlns:rdf="http://www.w3.org/1999/02/22-rdf-syntax-ns#"
   xmlns:svg="http://www.w3.org/2000/svg"
   xmlns="http://www.w3.org/2000/svg"
   xmlns:sodipodi="http://sodipodi.sourceforge.net/DTD/sodipodi-0.dtd"
   xmlns:inkscape="http://www.inkscape.org/namespaces/inkscape"
   version="1.1"
   id="svg2"
   xml:space="preserve"
   width="192"
   height="210.66667"
   viewBox="0 0 192 210.66667"
   sodipodi:docname="logo.svg"
   inkscape:version="0.92.3 (unknown)"><metadata
     id="metadata8"><rdf:RDF><cc:Work
         rdf:about=""><dc:format>image/svg+xml</dc:format><dc:type
           rdf:resource="http://purl.org/dc/dcmitype/StillImage" /><dc:title></dc:title></cc:Work></rdf:RDF></metadata><defs
     id="defs6"><clipPath
       clipPathUnits="userSpaceOnUse"
       id="clipPath26"><path
         d="M 0,158 H 144 V 0 H 0 Z"
         id="path24"
         inkscape:connector-curvature="0" /></clipPath><clipPath
       clipPathUnits="userSpaceOnUse"
       id="clipPath34"><path
         d="M 7.05334,126.471 H 108.757 V 20.754 H 7.05334 Z"
         id="path32"
         inkscape:connector-curvature="0" /></clipPath><clipPath
       clipPathUnits="userSpaceOnUse"
       id="clipPath66"><path
         d="M 0,158 H 144 V 0 H 0 Z"
         id="path64"
         inkscape:connector-curvature="0" /></clipPath></defs><sodipodi:namedview
     pagecolor="#ffffff"
     bordercolor="#666666"
     borderopacity="1"
     objecttolerance="10"
     gridtolerance="10"
     guidetolerance="10"
     inkscape:pageopacity="0"
     inkscape:pageshadow="2"
     inkscape:window-width="640"
     inkscape:window-height="480"
     id="namedview4"
     showgrid="false"
     inkscape:zoom="1.1202531"
     inkscape:cx="96"
     inkscape:cy="105.33334"
     inkscape:window-x="246"
     inkscape:window-y="66"
     inkscape:window-maximized="0"
     inkscape:current-layer="g10" /><g
     id="g10"
     inkscape:groupmode="layer"
     inkscape:label="khroma2"
     transform="matrix(1.3333333,0,0,-1.3333333,0,210.66667)"><g
       id="g12"
       transform="translate(3.8475,114.2505)"><path
         d="m 0,0 v -76.169 l 65.964,-38.082 65.963,38.082 V 0 L 65.964,38.083 Z"
         style="fill:#cccccc;fill-opacity:1;fill-rule:nonzero;stroke:none"
         id="path14"
         inkscape:connector-curvature="0" /></g><g
       id="g16"
       transform="translate(73.017,158.0004)"><path
         d="m 0,0 -65.964,-38.083 v -76.169 L 0,-152.334 l 65.963,38.082 v 76.169 z"
         style="fill:#1b496a;fill-opacity:1;fill-rule:nonzero;stroke:none"
         id="path18"
         inkscape:connector-curvature="0" /></g><g
       id="g20"><g
         id="g22"
         clip-path="url(#clipPath26)"><g
           id="g28"><g
             id="g30" /><g
             id="g42"><g
               clip-path="url(#clipPath34)"
               id="g40"
               style="opacity:0.39999402"><g
                 transform="translate(7.053,85.2446)"
                 id="g38"><path
                   d="m 0,0 0.001,-41.776 39.827,-22.715 34.517,20.039 0.312,5.23 27.047,15.907 -6.148,3.139 -10.809,6.361 12.259,7.373 L 92.438,3.919 85.615,-0.042 82.849,13.338 75.876,9.064 75.011,30.692 72.883,41.226 55.17,30.59 54.228,31.366 Z"
                   style="fill:#0d1f2e;fill-opacity:1;fill-rule:evenodd;stroke:none"
                   id="path36"
                   inkscape:connector-curvature="0" /></g></g></g></g><g
           id="g44"
           transform="translate(77.6048,56.4922)"><path
             d="m 0,0 c -1.495,-2.584 -4.35,-6.896 -9.142,-10.769 -16.5,-13.332 -43.61,-11.457 -46.848,-3.653 -0.896,2.157 -0.431,5.889 1.523,7.114 1.388,0.871 4.03,0.794 5.11,-0.994 0.794,-1.316 0.538,-3.221 -0.73,-4.582"
             style="fill:none;stroke:#7ba9ba;stroke-width:4;stroke-linecap:round;stroke-linejoin:round;stroke-miterlimit:10;stroke-dasharray:none;stroke-opacity:1"
             id="path46"
             inkscape:connector-curvature="0" /></g><g
           id="g48"
           transform="translate(80.6751,53.1563)"><path
             d="M 0,0 V -10.418"
             style="fill:none;stroke:#7ba9ba;stroke-width:4;stroke-linecap:round;stroke-linejoin:round;stroke-miterlimit:10;stroke-dasharray:none;stroke-opacity:1"
             id="path50"
             inkscape:connector-curvature="0" /></g><g
           id="g52"
           transform="translate(106.6839,69.8975)"><path
             d="m 0,0 -8.546,-10.042 c 0,0 5.551,3.326 7.865,2.469 1.063,-0.394 2.616,-1.243 4.159,0.685 C 5.021,-4.959 0,0 0,0"
             style="fill:#7ba9ba;fill-opacity:1;fill-rule:evenodd;stroke:none"
             id="path54"
             inkscape:connector-curvature="0" /></g><text
           transform="matrix(0.88020193,0.47459938,0.47459938,-0.88020193,75.77,12.9336)"
           style="font-variant:normal;font-weight:normal;font-stretch:normal;font-size:21.37634468px;font-family:'Myriad Pro';-inkscape-font-specification:MyriadPro-Regular;writing-mode:lr-tb;fill:#7ba9ba;fill-opacity:1;fill-rule:nonzero;stroke:none"
           id="text58"><tspan
             x="0 10.388904 22.252775 29.029076 40.76469 58.59256"
             y="0"
             sodipodi:role="line"
             id="tspan56">khroma</tspan></text>
</g></g><g
       id="g60"><g
         id="g62"
         clip-path="url(#clipPath66)"><g
           id="g68"
           transform="translate(43.8001,89.501)"><path
             d="m 0,0 c 1.501,0 2.718,-1.216 2.718,-2.718 v -7.345 c 0,-1.501 -1.217,-2.718 -2.718,-2.718 h -1.359 c -1.502,0 -2.719,1.217 -2.719,2.718 v 7.345 c 0,1.502 1.217,2.718 2.719,2.718 z"
             style="fill:#7ba9ba;fill-opacity:1;fill-rule:evenodd;stroke:none"
             id="path70"
             inkscape:connector-curvature="0" /></g><g
           id="g72"
           transform="translate(53.5354,105.7822)"><path
             d="m 0,0 c 1.502,0 2.719,-1.217 2.719,-2.719 v -17.545 c 0,-1.501 -1.217,-2.718 -2.719,-2.718 h -1.359 c -1.501,0 -2.718,1.217 -2.718,2.718 V -2.719 C -4.077,-1.217 -2.86,0 -1.359,0 Z"
             style="fill:#7ba9ba;fill-opacity:1;fill-rule:evenodd;stroke:none"
             id="path74"
             inkscape:connector-curvature="0" /></g><g
           id="g76"
           transform="translate(63.2718,116.6357)"><path
             d="m 0,0 c 1.501,0 2.719,-1.217 2.719,-2.719 v -24.345 c 0,-1.501 -1.218,-2.719 -2.719,-2.719 h -1.359 c -1.502,0 -2.719,1.218 -2.719,2.719 v 24.345 c 0,1.502 1.217,2.719 2.719,2.719 z"
             style="fill:#7ba9ba;fill-opacity:1;fill-rule:evenodd;stroke:none"
             id="path78"
             inkscape:connector-curvature="0" /></g><g
           id="g80"
           transform="translate(73.0071,111.1865)"><path
             d="m 0,0 c 1.502,0 2.719,-1.217 2.719,-2.718 v -17.546 c 0,-1.501 -1.217,-2.718 -2.719,-2.718 h -1.359 c -1.501,0 -2.718,1.217 -2.718,2.718 V -2.718 C -4.077,-1.217 -2.86,0 -1.359,0 Z"
             style="fill:#7ba9ba;fill-opacity:1;fill-rule:evenodd;stroke:none"
             id="path82"
             inkscape:connector-curvature="0" /></g><g
           id="g84"
           transform="translate(82.7435,126.8364)"><path
             d="m 0,0 c 1.502,0 2.719,-1.217 2.719,-2.719 v -34.546 c 0,-1.501 -1.217,-2.718 -2.719,-2.718 h -1.359 c -1.501,0 -2.719,1.217 -2.719,2.718 V -2.719 C -4.078,-1.217 -2.86,0 -1.359,0 Z"
             style="fill:#7ba9ba;fill-opacity:1;fill-rule:evenodd;stroke:none"
             id="path86"
             inkscape:connector-curvature="0" /></g><g
           id="g88"
           transform="translate(92.4788,98.5825)"><path
             d="m 0,0 c 1.502,0 2.719,-1.217 2.719,-2.719 v -9.67 c 0,-1.501 -1.217,-2.718 -2.719,-2.718 h -1.358 c -1.502,0 -2.719,1.217 -2.719,2.718 v 9.67 C -4.077,-1.217 -2.86,0 -1.358,0 Z"
             style="fill:#7ba9ba;fill-opacity:1;fill-rule:evenodd;stroke:none"
             id="path90"
             inkscape:connector-curvature="0" /></g><g
           id="g92"
           transform="translate(102.2151,89.5215)"><path
             d="m 0,0 c 1.502,0 2.719,-1.218 2.719,-2.718 v -6.014 c 0,-1.501 -1.217,-2.719 -2.719,-2.719 h -1.358 c -1.502,0 -2.719,1.218 -2.719,2.719 v 6.014 c 0,1.5 1.217,2.718 2.719,2.718 z"
             style="fill:#7ba9ba;fill-opacity:1;fill-rule:evenodd;stroke:none"
             id="path94"
             inkscape:connector-curvature="0" /></g><g
           id="g96"
           transform="translate(57.6253,58.5771)"><path
             d="m 0,0 c 10.493,-5.11 20.911,-5.003 31.408,0.323 7.779,3.948 7.779,15.197 0,19.144 C 20.911,24.793 10.493,24.901 0,19.791 -8.259,15.769 -8.259,4.021 0,0 m 15.378,-7.719 c -11.253,0 -22.506,5.397 -33.681,16.189 -0.806,0.779 -0.806,2.071 0,2.85 22.349,21.585 45.013,21.585 67.362,0 0.806,-0.779 0.806,-2.071 0,-2.85 C 37.885,-2.322 26.632,-7.719 15.378,-7.719"
             style="fill:#7ba9ba;fill-opacity:1;fill-rule:nonzero;stroke:none"
             id="path98"
             inkscape:connector-curvature="0" /></g><g
           id="g100"
           transform="translate(100.7474,67.3887)"><path
             d="m 0,0 c -18.496,-17.155 -36.992,-17.155 -55.487,0 -0.627,0.582 -0.627,1.585 0,2.167 18.495,17.155 36.991,17.155 55.487,0 C 0.627,1.585 0.627,0.582 0,0"
             style="fill:#f9f8f7;fill-opacity:1;fill-rule:nonzero;stroke:none"
             id="path102"
             inkscape:connector-curvature="0" /></g><g
           id="g104"
           transform="translate(84.2493,68.4727)"><path
             d="m 0,0 c 0,-6.212 -5.035,-11.246 -11.246,-11.246 -6.211,0 -11.246,5.034 -11.246,11.246 0,6.211 5.035,11.246 11.246,11.246 C -5.035,11.246 0,6.211 0,0"
             style="fill:#7ba9ba;fill-opacity:1;fill-rule:nonzero;stroke:none"
             id="path106"
             inkscape:connector-curvature="0" /></g><g
           id="g108"
           transform="translate(75.7698,73.8604)"><path
             d="m 0,0 c 0,-3.656 -2.824,-6.621 -6.309,-6.621 -3.484,0 -6.309,2.965 -6.309,6.621 0,3.657 2.825,6.622 6.309,6.622 C -2.824,6.622 0,3.657 0,0"
             style="fill:#f9f8f7;fill-opacity:1;fill-rule:nonzero;stroke:none"
             id="path110"
             inkscape:connector-curvature="0" /></g><g
           id="g112"
           transform="translate(75.7601,68.4727)"><path
             d="m 0,0 c 0,-1.598 -1.234,-2.894 -2.757,-2.894 -1.522,0 -2.756,1.296 -2.756,2.894 0,1.598 1.234,2.893 2.756,2.893 C -1.234,2.893 0,1.598 0,0"
             style="fill:#f9f8f7;fill-opacity:1;fill-rule:nonzero;stroke:none"
             id="path114"
             inkscape:connector-curvature="0" /></g></g></g></g></svg>