<?xml version="1.0" encoding="UTF-8" standalone="no"?>
<svg
   xmlns:dc="http://purl.org/dc/elements/1.1/"
   xmlns:cc="http://creativecommons.org/ns#"
   xmlns:rdf="http://www.w3.org/1999/02/22-rdf-syntax-ns#"
   xmlns:svg="http://www.w3.org/2000/svg"
   xmlns="http://www.w3.org/2000/svg"
   viewBox="0 0 192 210.66667"
   height="210.66667"
   width="192"
   xml:space="preserve"
   id="svg2"
   version="1.1"><metadata
     id="metadata8"><rdf:RDF><cc:Work
         rdf:about=""><dc:format>image/svg+xml</dc:format><dc:type
           rdf:resource="http://purl.org/dc/dcmitype/StillImage" /><dc:title></dc:title></cc:Work></rdf:RDF></metadata><defs
     id="defs6"><clipPath
       id="clipPath26"
       clipPathUnits="userSpaceOnUse"><path
         id="path24"
         d="M 0,158 H 144 V 0 H 0 Z" /></clipPath><clipPath
       id="clipPath34"
       clipPathUnits="userSpaceOnUse"><path
         id="path32"
         d="M 7.05334,126.471 H 108.757 V 20.754 H 7.05334 Z" /></clipPath><clipPath
       id="clipPath66"
       clipPathUnits="userSpaceOnUse"><path
         id="path64"
         d="M 0,158 H 144 V 0 H 0 Z" /></clipPath></defs><g
     transform="matrix(1.3333333,0,0,-1.3333333,0,210.66667)"
     id="g10"><g
       transform="translate(3.8475,114.2505)"
       id="g12"><path
         id="path14"
         style="fill:#cccccc;fill-opacity:1;fill-rule:nonzero;stroke:none"
         d="m 0,0 v -76.169 l 65.964,-38.082 65.963,38.082 V 0 L 65.964,38.083 Z" /></g><g
       transform="translate(73.017,158.0004)"
       id="g16"><path
         id="path18"
         style="fill:#1b496a;fill-opacity:1;fill-rule:nonzero;stroke:none"
         d="m 0,0 -65.964,-38.083 v -76.169 L 0,-152.334 l 65.963,38.082 v 76.169 z" /></g><g
       id="g20"><g
         clip-path="url(#clipPath26)"
         id="g22"><g
   id="g28"><g
     id="g30" /><g
     id="g42"><g
       style="opacity:0.39999402"
       id="g40"
       clip-path="url(#clipPath34)"><g
         id="g38"
         transform="translate(7.053,85.2446)"><path
           id="path36"
           style="fill:#0d1f2e;fill-opacity:1;fill-rule:evenodd;stroke:none"
           d="m 0,0 0.001,-41.776 39.827,-22.715 34.517,20.039 0.312,5.23 27.047,15.907 -6.148,3.139 -10.809,6.361 12.259,7.373 L 92.438,3.919 85.615,-0.042 82.849,13.338 75.876,9.064 75.011,30.692 72.883,41.226 55.17,30.59 54.228,31.366 Z" /></g></g></g></g><g
   transform="translate(77.6048,56.4922)"
   id="g44"><path
     id="path46"
     style="fill:none;stroke:#7ba9ba;stroke-width:4;stroke-linecap:round;stroke-linejoin:round;stroke-miterlimit:10;stroke-dasharray:none;stroke-opacity:1"
     d="m 0,0 c -1.495,-2.584 -4.35,-6.896 -9.142,-10.769 -16.5,-13.332 -43.61,-11.457 -46.848,-3.653 -0.896,2.157 -0.431,5.889 1.523,7.114 1.388,0.871 4.03,0.794 5.11,-0.994 0.794,-1.316 0.538,-3.221 -0.73,-4.582" /></g><g
   transform="translate(80.6751,53.1563)"
   id="g48"><path
     id="path50"
     style="fill:none;stroke:#7ba9ba;stroke-width:4;stroke-linecap:round;stroke-linejoin:round;stroke-miterlimit:10;stroke-dasharray:none;stroke-opacity:1"
     d="M 0,0 V -10.418" /></g><g
   transform="translate(106.6839,69.8975)"
   id="g52"><path
     id="path54"
     style="fill:#7ba9ba;fill-opacity:1;fill-rule:evenodd;stroke:none"
     d="m 0,0 -8.546,-10.042 c 0,0 5.551,3.326 7.865,2.469 1.063,-0.394 2.616,-1.243 4.159,0.685 C 5.021,-4.959 0,0 0,0" /></g><g
   id="text58"
   style="font-variant:normal;font-weight:normal;font-stretch:normal;font-size:21.37634468px;font-family:'Myriad Pro';-inkscape-font-specification:MyriadPro-Regular;writing-mode:lr-tb;fill:#7ba9ba;fill-opacity:1;fill-rule:nonzero;stroke:none"
   transform="matrix(0.85050586,0.52596557,0.52596557,-0.85050586,0,0)"
   aria-label="khroma"><path
     id="path59"
     style=""
     d="m 73.504028,14.70041 h 1.930969 v 9.592217 l 5.73028,-5.041394 h 2.452852 l -6.199975,5.469338 6.460917,6.220851 H 81.37403 l -5.939033,-5.709405 v 5.709405 h -1.930969 z" /><path
     id="path61"
     style=""
     d="m 93.683462,23.885558 v 7.055864 h -1.920531 v -6.993238 q 0,-1.65959 -0.647135,-2.484165 -0.647136,-0.824576 -1.941407,-0.824576 -1.555212,0 -2.452852,0.991578 -0.897639,0.991579 -0.897639,2.703356 v 6.607045 H 83.892929 V 14.70041 h 1.930969 v 6.366977 q 0.688886,-1.054204 1.617838,-1.576088 0.939391,-0.521883 2.160598,-0.521883 2.01447,0 3.047799,1.25252 1.033329,1.242083 1.033329,3.663622 z" /><path
     id="path63"
     style=""
     d="m 102.60391,21.046512 q -0.32357,-0.187878 -0.70976,-0.271379 -0.37576,-0.09394 -0.83502,-0.09394 -1.628273,0 -2.505037,1.064642 -0.866327,1.054204 -0.866327,3.037361 v 6.158225 H 95.756798 V 19.251233 h 1.930968 v 1.816154 q 0.605385,-1.064642 1.576088,-1.576088 0.970706,-0.521883 2.358916,-0.521883 0.19831,0 0.43838,0.03131 0.24007,0.02088 0.53232,0.07306 z" /><path
     id="path65"
     style=""
     d="m 107.1361,20.597692 q -1.54477,0 -2.44241,1.21077 -0.89764,1.200332 -0.89764,3.298303 0,2.097971 0.8872,3.308741 0.89764,1.200332 2.45285,1.200332 1.53434,0 2.43198,-1.21077 0.89764,-1.210769 0.89764,-3.298303 0,-2.077096 -0.89764,-3.287866 -0.89764,-1.221207 -2.43198,-1.221207 z m 0,-1.628276 q 2.50504,0 3.935,1.628276 1.42996,1.628276 1.42996,4.509073 0,2.870359 -1.42996,4.509073 -1.42996,1.628276 -3.935,1.628276 -2.51548,0 -3.94544,-1.628276 -1.41952,-1.638714 -1.41952,-4.509073 0,-2.880797 1.41952,-4.509073 1.42996,-1.628276 3.94544,-1.628276 z" /><path
     id="path67"
     style=""
     d="m 123.44343,21.495332 q 0.7202,-1.294271 1.72222,-1.910094 1.00201,-0.615822 2.35891,-0.615822 1.82659,0 2.81817,1.283833 0.99158,1.273396 0.99158,3.632309 v 7.055864 h -1.93097 v -6.993238 q 0,-1.680465 -0.59495,-2.494603 -0.59494,-0.814138 -1.81615,-0.814138 -1.49259,0 -2.35891,0.991578 -0.86633,0.991579 -0.86633,2.703356 v 6.607045 h -1.93097 v -6.993238 q 0,-1.690903 -0.59494,-2.494603 -0.59495,-0.814138 -1.83703,-0.814138 -1.47172,0 -2.33804,1.002016 -0.86633,0.991579 -0.86633,2.692918 v 6.607045 h -1.93097 V 19.251233 h 1.93097 v 1.816154 q 0.65757,-1.07508 1.57609,-1.586525 0.91851,-0.511446 2.18147,-0.511446 1.2734,0 2.1606,0.647135 0.89764,0.647136 1.32558,1.878781 z" /><path
     id="path69"
     style=""
     d="m 137.48243,25.065014 q -2.3276,0 -3.22524,0.532321 -0.89764,0.532321 -0.89764,1.816155 0,1.022891 0.66801,1.628276 0.67845,0.594947 1.83703,0.594947 1.59696,0 2.55723,-1.127268 0.9707,-1.137706 0.9707,-3.016486 v -0.427945 z m 3.83062,-0.793263 v 6.669671 h -1.92053 v -1.774404 q -0.65757,1.064642 -1.63872,1.576088 -0.98114,0.501008 -2.40066,0.501008 -1.79528,0 -2.85992,-1.002016 -1.0542,-1.012454 -1.0542,-2.703356 0,-1.97272 1.31514,-2.974736 1.32559,-1.002016 3.94544,-1.002016 h 2.69292 v -0.187878 q 0,-1.325584 -0.87677,-2.045783 -0.86632,-0.730637 -2.44241,-0.730637 -1.00202,0 -1.95184,0.240067 -0.94983,0.240066 -1.8266,0.720199 v -1.774404 q 1.05421,-0.407069 2.04579,-0.605385 0.99158,-0.208753 1.93097,-0.208753 2.53635,0 3.78887,1.315146 1.25252,1.315146 1.25252,3.987189 z" /></g>

</g></g><g
       id="g60"><g
         clip-path="url(#clipPath66)"
         id="g62"><g
           transform="translate(43.8001,89.501)"
           id="g68"><path
             id="path70"
             style="fill:#7ba9ba;fill-opacity:1;fill-rule:evenodd;stroke:none"
             d="m 0,0 c 1.501,0 2.718,-1.216 2.718,-2.718 v -7.345 c 0,-1.501 -1.217,-2.718 -2.718,-2.718 h -1.359 c -1.502,0 -2.719,1.217 -2.719,2.718 v 7.345 c 0,1.502 1.217,2.718 2.719,2.718 z" /></g><g
           transform="translate(53.5354,105.7822)"
           id="g72"><path
             id="path74"
             style="fill:#7ba9ba;fill-opacity:1;fill-rule:evenodd;stroke:none"
             d="m 0,0 c 1.502,0 2.719,-1.217 2.719,-2.719 v -17.545 c 0,-1.501 -1.217,-2.718 -2.719,-2.718 h -1.359 c -1.501,0 -2.718,1.217 -2.718,2.718 V -2.719 C -4.077,-1.217 -2.86,0 -1.359,0 Z" /></g><g
           transform="translate(63.2718,116.6357)"
           id="g76"><path
             id="path78"
             style="fill:#7ba9ba;fill-opacity:1;fill-rule:evenodd;stroke:none"
             d="m 0,0 c 1.501,0 2.719,-1.217 2.719,-2.719 v -24.345 c 0,-1.501 -1.218,-2.719 -2.719,-2.719 h -1.359 c -1.502,0 -2.719,1.218 -2.719,2.719 v 24.345 c 0,1.502 1.217,2.719 2.719,2.719 z" /></g><g
           transform="translate(73.0071,111.1865)"
           id="g80"><path
             id="path82"
             style="fill:#7ba9ba;fill-opacity:1;fill-rule:evenodd;stroke:none"
             d="m 0,0 c 1.502,0 2.719,-1.217 2.719,-2.718 v -17.546 c 0,-1.501 -1.217,-2.718 -2.719,-2.718 h -1.359 c -1.501,0 -2.718,1.217 -2.718,2.718 V -2.718 C -4.077,-1.217 -2.86,0 -1.359,0 Z" /></g><g
           transform="translate(82.7435,126.8364)"
           id="g84"><path
             id="path86"
             style="fill:#7ba9ba;fill-opacity:1;fill-rule:evenodd;stroke:none"
             d="m 0,0 c 1.502,0 2.719,-1.217 2.719,-2.719 v -34.546 c 0,-1.501 -1.217,-2.718 -2.719,-2.718 h -1.359 c -1.501,0 -2.719,1.217 -2.719,2.718 V -2.719 C -4.078,-1.217 -2.86,0 -1.359,0 Z" /></g><g
           transform="translate(92.4788,98.5825)"
           id="g88"><path
             id="path90"
             style="fill:#7ba9ba;fill-opacity:1;fill-rule:evenodd;stroke:none"
             d="m 0,0 c 1.502,0 2.719,-1.217 2.719,-2.719 v -9.67 c 0,-1.501 -1.217,-2.718 -2.719,-2.718 h -1.358 c -1.502,0 -2.719,1.217 -2.719,2.718 v 9.67 C -4.077,-1.217 -2.86,0 -1.358,0 Z" /></g><g
           transform="translate(102.2151,89.5215)"
           id="g92"><path
             id="path94"
             style="fill:#7ba9ba;fill-opacity:1;fill-rule:evenodd;stroke:none"
             d="m 0,0 c 1.502,0 2.719,-1.218 2.719,-2.718 v -6.014 c 0,-1.501 -1.217,-2.719 -2.719,-2.719 h -1.358 c -1.502,0 -2.719,1.218 -2.719,2.719 v 6.014 c 0,1.5 1.217,2.718 2.719,2.718 z" /></g><g
           transform="translate(57.6253,58.5771)"
           id="g96"><path
             id="path98"
             style="fill:#7ba9ba;fill-opacity:1;fill-rule:nonzero;stroke:none"
             d="m 0,0 c 10.493,-5.11 20.911,-5.003 31.408,0.323 7.779,3.948 7.779,15.197 0,19.144 C 20.911,24.793 10.493,24.901 0,19.791 -8.259,15.769 -8.259,4.021 0,0 m 15.378,-7.719 c -11.253,0 -22.506,5.397 -33.681,16.189 -0.806,0.779 -0.806,2.071 0,2.85 22.349,21.585 45.013,21.585 67.362,0 0.806,-0.779 0.806,-2.071 0,-2.85 C 37.885,-2.322 26.632,-7.719 15.378,-7.719" /></g><g
           transform="translate(100.7474,67.3887)"
           id="g100"><path
             id="path102"
             style="fill:#f9f8f7;fill-opacity:1;fill-rule:nonzero;stroke:none"
             d="m 0,0 c -18.496,-17.155 -36.992,-17.155 -55.487,0 -0.627,0.582 -0.627,1.585 0,2.167 18.495,17.155 36.991,17.155 55.487,0 C 0.627,1.585 0.627,0.582 0,0" /></g><g
           transform="translate(84.2493,68.4727)"
           id="g104"><path
             id="path106"
             style="fill:#7ba9ba;fill-opacity:1;fill-rule:nonzero;stroke:none"
             d="m 0,0 c 0,-6.212 -5.035,-11.246 -11.246,-11.246 -6.211,0 -11.246,5.034 -11.246,11.246 0,6.211 5.035,11.246 11.246,11.246 C -5.035,11.246 0,6.211 0,0" /></g><g
           transform="translate(75.7698,73.8604)"
           id="g108"><path
             id="path110"
             style="fill:#f9f8f7;fill-opacity:1;fill-rule:nonzero;stroke:none"
             d="m 0,0 c 0,-3.656 -2.824,-6.621 -6.309,-6.621 -3.484,0 -6.309,2.965 -6.309,6.621 0,3.657 2.825,6.622 6.309,6.622 C -2.824,6.622 0,3.657 0,0" /></g><g
           transform="translate(75.7601,68.4727)"
           id="g112"><path
             id="path114"
             style="fill:#f9f8f7;fill-opacity:1;fill-rule:nonzero;stroke:none"
             d="m 0,0 c 0,-1.598 -1.234,-2.894 -2.757,-2.894 -1.522,0 -2.756,1.296 -2.756,2.894 0,1.598 1.234,2.893 2.756,2.893 C -1.234,2.893 0,1.598 0,0" /></g></g></g></g></svg>